<?xml version="1.0" encoding="utf-8"?>
<!-- Generator: Adobe Illustrator 25.2.1, SVG Export Plug-In . SVG Version: 6.00 Build 0)  -->
<svg version="1.1" id="Layer_1" xmlns="http://www.w3.org/2000/svg" xmlns:xlink="http://www.w3.org/1999/xlink" x="0px" y="0px"
	 viewBox="0 0 1024 1538" style="enable-background:new 0 0 1024 1538;" xml:space="preserve">
<style type="text/css">
	.st0{fill-rule:evenodd;clip-rule:evenodd;fill:#47BFBA;}
	.st1{fill-rule:evenodd;clip-rule:evenodd;fill:#FFFFFF;}
	.st2{fill-rule:evenodd;clip-rule:evenodd;fill:#641A35;}
	.st3{clip-path:url(#SVGID_2_);}
	.st4{fill-rule:evenodd;clip-rule:evenodd;fill:#A51D49;}
	.st5{fill-rule:evenodd;clip-rule:evenodd;fill:#FFEDA9;}
	.st6{fill-rule:evenodd;clip-rule:evenodd;fill:#49C0B9;}
	.st7{fill-rule:evenodd;clip-rule:evenodd;fill:#20AFA6;}
	.st8{fill-rule:evenodd;clip-rule:evenodd;fill:#2FBCB3;}
	.st9{fill-rule:evenodd;clip-rule:evenodd;fill:none;}
</style>
<path id="text_7_" class="st0" d="M16.3,1421.6v-28.4h32v-198.5h-32v-29.8H117v29.8H84.7v197.1h89.4v-41.4h32v71.3H16.3z
	 M261.7,1200.9v-36h37.1v36H261.7z M233.7,1421.6v-27.3h28.7v-129.4h-30.5v-27.3h65.8v156.7h29.1v27.3H233.7z M367.9,1421.6v-229.4
	H337v-27.3h66.2v85.1c0,8.7-1.1,15.3-1.1,15.3h0.7c0,0,16.4-32,59.3-32c49.8,0,81.1,39.3,81.1,96.3c0,58.5-35.3,96.3-84,96.3
	c-42.5,0-58.2-33.4-58.2-33.4h-0.7c0,0,1.1,6.5,1.1,14.5v14.5H367.9z M402.1,1330.3c0,32.7,17.1,65.1,52.4,65.1
	c28.7,0,52.7-23.6,52.7-65.4c0-40-21.5-65.8-52-65.8C427.9,1264.1,402.1,1283.4,402.1,1330.3z M589.3,1421.6v-229.4h-30.9v-27.3
	h66.2v85.1c0,8.7-1.1,15.3-1.1,15.3h0.7c0,0,16.4-32,59.3-32c49.8,0,81.1,39.3,81.1,96.3c0,58.5-35.3,96.3-84,96.3
	c-42.5,0-58.2-33.4-58.2-33.4h-0.7c0,0,1.1,6.5,1.1,14.5v14.5H589.3z M623.5,1330.3c0,32.7,17.1,65.1,52.4,65.1
	c28.7,0,52.7-23.6,52.7-65.4c0-40-21.5-65.8-52-65.8C649.3,1264.1,623.5,1283.4,623.5,1330.3z M803.1,1459.7c0,0,10.5,8.7,26.2,8.7
	c15.6,0,27.6-10.9,33.8-25.5l7.6-18.2l-64.4-160h-23.3v-27.3h84v27.3h-24.4l41.1,109.4c2.5,8,3.3,16,3.3,16h1.1c0,0,1.5-8,4.4-16
	l40.7-109.4h-23.6v-27.3H991v27.3h-22.9l-72.7,185.8c-12.4,31.3-36.4,47.3-64.7,47.3c-23.6,0-39.6-11.6-39.6-11.6L803.1,1459.7z
	 M975.1,1421.6v-38.2h37.8v38.2H975.1z"/>
<g>
	<circle class="st1" cx="503.9" cy="506.5" r="490.9"/>
	<circle class="st2" cx="503.9" cy="506.5" r="458.2"/>
	<g>
		<defs>
			<circle id="SVGID_1_" cx="503.9" cy="506.5" r="458.2"/>
		</defs>
		<clipPath id="SVGID_2_">
			<use xlink:href="#SVGID_1_"  style="overflow:visible;"/>
		</clipPath>
		<g class="st3">
			<g>
				<path id="bob_5_" class="st4" d="M268.8,983.9C219,930,188.6,858,188.6,778.9c0-167.8,135.6-303.4,303.4-303.4
					c166.9,0,302.5,135.6,302.5,303.4c0,79-30.4,151-80.1,204.9H268.8z"/>
				<circle id="face_5_" class="st5" cx="491.5" cy="778.5" r="272.2"/>
				<path id="ribbon_5_" class="st6" d="M708.7,408.8c0,0-50.3,24.6-61.2,24.6c-11,0-62-24.6-62-24.6v64.4
					c46.5,13.6,88.5,38.8,123.2,70.4V408.8z"/>
				<path id="right-hair_5_" class="st4" d="M636.4,728.7c35.8-44.7,63.6-96.1,80.9-152.1c47.9,53.7,77.1,124.6,77.1,202.4
					c0,31.1-4.7,61.1-13.5,89.4L636.4,728.7z"/>
				<path id="left-hair_5_" class="st4" d="M208.9,888c-13.1-33.8-20.3-70.6-20.3-109.1c0-167.8,135.6-303.4,303.4-303.4
					c84.2,0,160.4,34.5,215.3,90.3C649,754.4,473.3,891.5,265.6,891.5C246.4,891.5,227.5,890.3,208.9,888z"/>
				<path id="right-eye_3_" class="st2" d="M572.5,842.1c-0.7-2.9-1.1-6-1.1-9.1c0-20.9,17-37.9,37.9-37.9s37.9,16.9,37.9,37.9
					c0,14.4-8.1,27-20,33.4c-4.1-16.5-19-28.7-36.8-28.7C583.9,837.6,577.8,839.2,572.5,842.1z"/>
				<path id="right-eye-closed_4_" class="st2" d="M620.8,866.4c-26.2,0-55.6-33.9-52.3-38.7c3.3-4.9,32,8.5,50.6,8.5
					c20.2,0,51.3-13.3,54.5-8.7C676.9,832.2,647.8,866.4,620.8,866.4z"/>
				<path id="pages-outline_3_" class="st2" d="M147.6,666.2c0-49.8,39.9-83.8,89-75.4c0,0,175.5,25.3,235,59.1
					c9.7,0.1,29.5,0.1,39.7,0c60.1-34.1,229.7-58.9,229.7-58.9c49.1-8.4,89,25.3,89,75.1v436H147.6V666.2z"/>
				<path id="pages_3_" class="st1" d="M147.6,652.9c0-31.1,24.9-52.3,55.5-47.2c0,0,209,31.1,268.5,65c9.7,0,29.5,0,39.7,0
					c60.1-34.2,263.1-64.8,263.1-64.8c30.6-5.1,55.5,16,55.5,47.1v449.2H147.6V652.9z"/>
				<path id="back-cover_3_" class="st6" d="M491.5,1102.2V692.4l-331.3-60.5c-26.1-4.9-46.5,13.1-46,39.7l-0.9,430.6H491.5z"/>
				<path id="front-cover_3_" class="st7" d="M491.5,1102.2V691.5L822.8,631c26.4-4.9,47.8,13,47.8,39.7v431.5H491.5z"/>
				<polygon id="spine_3_" class="st8" points="540.3,1102.2 540.3,683.3 441.9,683.3 441.9,1102.2 				"/>
			</g>
			<rect id="field_4_" x="29.4" y="-7.2" class="st9" width="924.3" height="924.3"/>
		</g>
	</g>
</g>
</svg>
